HIERARCHY
ROOT pelvis
{
  OFFSET 0 100 0
  CHANNELS 6 Xposition Yposition Zposition Zrotation Xrotation Yrotation
  JOINT pelvis_right_femur
  {
    OFFSET -10.78128 -3.44521 -0.5502486
    CHANNELS 3 Zrotation Xrotation Yrotation
    JOINT right_femur_tibia
    {
      OFFSET -0.8047443 -44.0398 -0.1307829
      CHANNELS 3 Zrotation Xrotation Yrotation
      JOINT right_tibia_foot
      {
        OFFSET 3.006224 -47.83518 -5
        CHANNELS 3 Zrotation Xrotation Yrotation
        End Site
        {
          OFFSET 0 -5 15
        }
      }
    }
  }
  JOINT pelvis_left_femur
  {
    OFFSET 10.78128 -3.44521 -0.5502486
    CHANNELS 3 Zrotation Xrotation Yrotation
    JOINT left_femur_tibia
    {
      OFFSET 0.8047443 -44.0398 -0.1307829
      CHANNELS 3 Zrotation Xrotation Yrotation
      JOINT left_tibia_foot
      {
        OFFSET -4.370144 -48.10324 -4.275266
        CHANNELS 3 Zrotation Xrotation Yrotation
        End Site
        {
          OFFSET 0 -5 15
        }
      }
    }
  }
  JOINT pelvis_spine1
  {
    OFFSET 0 6.468898 -3.129235
    CHANNELS 3 Zrotation Xrotation Yrotation
    JOINT spine1
    {
      OFFSET 0 23.15396 4.99043
      CHANNELS 3 Zrotation Xrotation Yrotation
      JOINT spine2
      {
        OFFSET 0 20.79997 -5.064912
        CHANNELS 3 Zrotation Xrotation Yrotation
        JOINT neck
        {
          OFFSET 0 14.38658 9.616178
          CHANNELS 3 Zrotation Xrotation Yrotation
          End Site
          {
            OFFSET 0 20 0
          }
        }
      }
      JOINT right_manubrium
      {
        OFFSET -5.722621 16.35077 3.967754
        CHANNELS 3 Zrotation Xrotation Yrotation
        JOINT right_clavicle
        {
          OFFSET -13.16364 1.694482 -4.693211
          CHANNELS 3 Zrotation Xrotation Yrotation
          JOINT right_humerus
          {
            OFFSET -28.5034 -0.3100689 -2.792744
            CHANNELS 3 Zrotation Xrotation Yrotation
            JOINT right_radius
            {
              OFFSET -25.15693 0.02248979 -1.271978
              CHANNELS 3 Zrotation Xrotation Yrotation
              End Site
              {
                OFFSET -15 0 0
              }
            }
          }
        }
      }
      JOINT left_manubrium
      {
        OFFSET 5.722621 16.35077 3.967754
        CHANNELS 3 Zrotation Xrotation Yrotation
        JOINT left_clavicle
        {
          OFFSET 13.16364 1.694482 -4.693211
          CHANNELS 3 Zrotation Xrotation Yrotation
          JOINT left_humerus
          {
            OFFSET 29.39168 -1.063119 -2.237045
            CHANNELS 3 Zrotation Xrotation Yrotation
            JOINT left_radius
            {
              OFFSET 24.59957 -0.9528479 0.9047498
              CHANNELS 3 Zrotation Xrotation Yrotation
              End Site
              {
                OFFSET 15 -0 -0
              }
            }
          }
        }
      }
    }
  }
}
MOTION
Frames: 17
Frame Time: 0.0416666666667
42.89102 96.86333 243.2017 3.657685 -7.738478 7.48045 0.1850875 17.0997 6.995087 -0 13.08449 -0 5.548537 -11.0121 0.04443698 -1.587497 -18.43781 -4.98705 -0 34.76089 -0 -8.015955 -6.922111 18.977 -1.573368 -1.091172 9.326265 -1.117071 10.48351 -3.058147 2.471317 21.8218 5.272444 1.991757 -14.77622 7.187928 2.095354 -19.90075 11.44935 82.12896 23.06423 -9.594251 -0 0 22.53604 -25.41455 14.58835 12.56309 4.827278 -15.84643 -3.402695 -91.93042 22.22395 21.91715 0 0 -13.82768 -3.284682 6.94495 15.75488
44.80993 96.65069 249.4687 3.844911 -7.794444 7.896077 -0.2943759 17.73842 6.884829 -0 16.64049 -0 5.99629 -11.01335 -0.04756612 -1.963948 -18.79023 -5.393885 -0 32.37954 -0 -7.852296 -7.4239 18.92584 -1.744879 -1.051313 9.335866 -1.341399 10.1648 -2.837011 2.562123 21.92073 5.225198 1.833591 -14.67826 7.376751 1.922386 -19.97826 11.23898 81.96744 22.68374 -8.847131 -0 0 23.1199 -25.49234 14.35546 12.69054 4.704516 -15.29845 -3.384113 -92.08524 22.49452 22.3244 0 0 -12.9137 -3.545333 6.948238 16.10301
46.85966 96.54184 255.765 4.02772 -7.827336 8.49938 -0.7189865 17.60403 6.654789 -0 20.31783 -0 6.332391 -10.81191 -0.307916 -2.466198 -18.26806 -5.916082 -0 30.10996 -0 -7.670697 -7.998197 18.73919 -1.923918 -1.02796 9.191258 -1.504782 9.84435 -2.73796 2.64211 22.03713 5.191954 1.669343 -14.58471 7.57981 1.792987 -19.88004 11.00893 82.02705 22.41875 -8.453624 -0 0 23.31965 -25.44522 14.15988 12.7212 4.59788 -14.88744 -3.40197 -91.97526 22.80289 22.30496 0 0 -12.24663 -3.694796 7.00577 16.33865
49.0186 96.54426 262.0568 4.202542 -7.854281 9.295404 -1.047531 16.61101 6.305375 -0 23.85573 -0 6.512908 -10.49306 -0.7386022 -3.028086 -16.89678 -6.492463 -0 28.00064 -0 -7.477591 -8.664016 18.4361 -2.100423 -0.9869438 8.885519 -1.599794 9.536567 -2.762449 2.709506 22.18411 5.171157 1.500556 -14.47872 7.791727 1.701601 -19.60664 10.76892 82.30631 22.27819 -8.424295 -0 0 23.12666 -25.26307 14.00236 12.6456 4.522702 -14.65124 -3.456921 -91.58345 23.14804 21.80301 0 0 -11.89835 -3.718215 7.127912 16.42846
51.25745 96.64651 268.2952 4.368132 -7.887964 10.28094 -1.259114 14.73045 5.847163 -0 27.03436 -0 6.508108 -10.13132 -1.330486 -3.58968 -14.73947 -7.067649 -0 26.08119 -0 -7.278458 -9.434388 18.03808 -2.266487 -0.9017858 8.421459 -1.623318 9.251925 -2.905725 2.763622 22.3704 5.160585 1.329099 -14.3479 8.007177 1.641413 -19.16684 10.52728 82.79626 22.26049 -8.752163 -0 0 22.55208 -24.9433 13.8807 12.46056 4.490606 -14.61317 -3.547418 -90.90913 23.5203 20.79286 0 0 -11.91357 -3.60791 7.320465 16.35009
53.54307 96.82506 274.4274 4.525646 -7.932438 11.44533 -1.356988 12.01886 5.30357 -0 29.69683 -0 6.307517 -9.779232 -2.061408 -4.107269 -11.90308 -7.602228 -0 24.37472 -0 -7.079888 -10.30663 17.56766 -2.41644 -0.7606142 7.815526 -1.577686 8.995138 -3.155141 2.805836 22.59716 5.156455 1.157837 -14.18808 8.22035 1.604901 -18.57845 10.29029 83.47693 22.35199 -9.40841 -0 0 21.62956 -24.49224 13.78936 12.16993 4.506931 -14.77526 -3.66814 -89.9753 23.90076 19.29393 0 0 -12.29634 -3.36587 7.582992 16.09739
55.84286 97.05054 280.4108 4.677221 -7.981085 12.7698 -1.361457 8.627236 4.709348 -0 31.72303 -0 5.9162 -9.470421 -2.895421 -4.552803 -8.542682 -8.072878 -0 22.91453 -0 -6.891211 -11.25865 17.04891 -2.546455 -0.5675902 7.099576 -1.470081 8.764846 -3.489379 2.840577 22.85727 5.152011 0.9916252 -14.00433 8.423577 1.58285 -17.86733 10.06262 84.31442 22.52835 -10.34171 -0 0 20.41368 -23.92332 13.719 11.78274 4.571583 -15.11845 -3.808569 -88.83131 24.26456 17.37353 0 0 -13.01073 -3.002884 7.910148 15.67858
58.1295 97.29224 286.2258 4.823657 -8.0167 14.22544 -1.298589 4.796175 4.106206 -0 32.99659 -0 5.348822 -9.227274 -3.783349 -4.909049 -4.861076 -8.46812 -0 21.75561 -0 -6.724927 -12.24929 16.50823 -2.654357 -0.3413308 6.32052 -1.311397 8.554279 -3.878661 2.875832 23.136 5.136595 0.8379564 -13.81029 8.606261 1.563339 -17.06585 9.847977 85.25916 22.75819 -11.47966 -0 0 18.9763 -23.2547 13.65638 11.31089 4.681028 -15.60603 -3.952471 -87.55145 24.58685 15.14304 0 0 -13.98752 -2.536605 8.293914 15.11242
60.38496 97.52096 291.8821 4.962259 -8.01639 15.77235 -1.189969 0.8182057 3.535564 -0 33.40655 -0 4.625178 -9.065292 -4.669428 -5.166528 -1.086116 -8.784825 -0 20.96729 -0 -6.594369 -13.22555 15.97264 -2.739749 -0.1093009 5.533581 -1.114566 8.353618 -4.288562 2.921769 23.41421 5.097194 0.7059487 -13.62464 8.756072 1.532987 -16.2096 9.649592 86.25063 23.00921 -12.73719 -0 0 17.39818 -22.5071 13.58625 10.76796 4.829929 -16.19084 -4.080368 -86.22419 24.84974 12.74132 0 0 -15.13772 -1.988775 8.725156 14.42396
62.60227 97.71072 297.4167 5.086465 -7.961443 17.36218 -1.047118 -3.030886 3.030553 -0 32.8878 -0 3.767631 -8.993036 -5.504026 -5.323134 2.573121 -9.026318 -0 20.60863 -0 -6.509062 -14.13577 15.46621 -2.803805 0.1017693 4.789251 -0.8923935 8.154073 -4.687376 2.987313 23.67417 5.022627 0.6035812 -13.46502 8.862448 1.480698 -15.33251 9.47026 87.22992 23.25549 -14.03226 -0 0 15.75586 -21.70199 13.49505 10.16907 5.011846 -16.82568 -4.174966 -84.93313 25.04659 10.30597 0 0 -16.37119 -1.381786 9.194139 13.64072
64.78443 97.84043 302.883 5.188002 -7.846204 18.94331 -0.8717431 -6.538665 2.612896 -0 31.46256 -0 2.800383 -9.011466 -6.252382 -5.38348 5.953137 -9.200288 -0 20.71284 -0 -6.47111 -14.93761 15.00992 -2.848225 0.2738946 4.123858 -0.6562953 7.951608 -5.051125 3.077052 23.90462 4.907118 0.5354162 -13.34318 8.919336 1.401142 -14.46499 9.312617 88.14944 23.48124 -15.29542 -0 0 14.11393 -20.86119 13.3735 9.531835 5.218543 -17.46982 -4.225536 -83.74535 25.18143 7.954638 0 0 -17.60625 -0.7372873 9.690394 12.79134
66.94204 97.89661 308.3368 5.260782 -7.68256 20.466 -0.6585339 -9.547884 2.296055 -0 29.2636 -0 1.750606 -9.114885 -6.893438 -5.35695 8.922531 -9.316195 -0 21.29579 -0 -6.473863 -15.59383 14.62762 -2.873623 0.4008006 3.559645 -0.4169289 7.749204 -5.362645 3.189968 24.10298 4.751307 0.502178 -13.26383 8.925329 1.29638 -13.63762 9.179938 88.97208 23.68013 -16.46487 -0 0 12.52892 -20.00869 13.21653 8.879019 5.437696 -18.08671 -4.228929 -82.7164 25.26597 5.791915 0 0 -18.76079 -0.07874716 10.20227 11.90879
69.09022 97.87784 313.8231 5.305029 -7.501159 21.88624 -0.3973097 -11.91947 2.090236 -0 26.54479 -0 0.6504423 -9.292597 -7.413448 -5.255809 11.34861 -9.383023 -0 22.37604 -0 -6.501689 -16.06176 14.35452 -2.87805 0.4876285 3.109998 -0.1857696 7.558042 -5.607578 3.319383 24.27584 4.561692 0.5014333 -13.22563 8.882364 1.17621 -12.8874 9.077093 89.6641 23.853 -17.47375 -0 0 11.05912 -19.17362 13.02192 8.241659 5.650039 -18.63717 -4.188737 -81.90329 25.31769 3.929651 0 0 -19.73446 0.5639736 10.71661 11.03576
71.24518 97.7994 319.3658 5.329232 -7.347142 23.16774 -0.0757023 -13.51323 2.003956 -0 23.65885 -0 -0.4633092 -9.530876 -7.801421 -5.093807 13.08382 -9.407733 -0 23.98265 -0 -6.531934 -16.29025 14.23828 -2.856829 0.5483805 2.783442 0.0244828 7.396246 -5.772196 3.4542 24.4372 4.3491 0.5285782 -13.22292 8.794446 1.05656 -12.25893 9.010358 90.19131 24.00573 -18.24602 -0 0 9.768039 -18.3902 12.78954 7.658505 5.829507 -19.07725 -4.11373 -81.369 25.35811 2.493585 0 0 -20.40526 1.153713 11.21963 10.22503
73.42081 97.69458 324.9649 5.347243 -7.266864 24.28198 0.3147899 -14.21191 2.039581 -0 20.97362 -0 -1.554466 -9.81551 -8.049678 -4.884573 13.99577 -9.394669 -0 26.13465 -0 -6.541412 -16.23262 14.32573 -2.804611 0.6003266 2.583728 0.2019832 7.283215 -5.845498 3.58206 24.60334 4.125957 0.5780508 -13.24821 8.666867 0.9545037 -11.79523 8.985276 90.52431 24.14633 -18.71115 -0 0 8.714311 -17.69172 12.52164 7.168204 5.949576 -19.3667 -4.015108 -81.16919 25.40789 1.598785 0 0 -20.6566 1.65336 11.69951 9.528847
75.62621 97.60971 330.6014 5.371676 -7.291837 25.20725 0.7710595 -13.96208 2.186382 -0 18.7689 -0 -2.594183 -10.1338 -8.156298 -4.639695 14.01284 -9.34666 -0 28.80127 -0 -6.514393 -15.86654 14.64388 -2.71841 0.6575067 2.508099 0.3384113 7.232228 -5.822756 3.692779 24.78621 3.903683 0.6445129 -13.29491 8.505934 0.8820689 -11.5254 9.003971 90.64725 24.28125 -18.82487 -0 0 7.937725 -17.1038 12.22285 6.800251 5.992369 -19.48097 -3.903068 -81.33368 25.47889 1.314546 0 0 -20.41527 2.036733 12.1486 8.984105
77.86533 97.59391 336.2456 5.408029 -7.429357 25.92862 1.27355 -12.7916 2.416474 -0 17.18466 -0 -3.563306 -10.47435 -8.124616 -4.367213 13.14241 -9.267802 -0 31.85826 -0 -6.445742 -15.20576 15.18995 -2.599548 0.7269204 2.546689 0.4294731 7.245918 -5.706409 3.779504 24.98934 3.692406 0.7234926 -13.35946 8.319311 0.8422052 -11.46056 9.063702 90.56078 24.41247 -18.57626 -0 0 7.456651 -16.64486 11.89917 6.573982 5.9544 -19.41665 -3.784405 -81.85969 25.56804 1.650491 0 0 -19.6688 2.294577 12.56332 8.604671
